# Blender 3.4.1
# www.blender.org
o Flag
v 0.000000 0.000000 -0.050000
v 0.000000 2.000000 -0.050000
v 0.009755 0.000000 -0.049039
v 0.009755 2.000000 -0.049039
v 0.019134 0.000000 -0.046194
v 0.019134 2.000000 -0.046194
v 0.027779 0.000000 -0.041573
v 0.027779 2.000000 -0.041573
v 0.035355 0.000000 -0.035355
v 0.035355 2.000000 -0.035355
v 0.041573 0.000000 -0.027779
v 0.041573 2.000000 -0.027779
v 0.046194 0.000000 -0.019134
v 0.046194 2.000000 -0.019134
v 0.049039 0.000000 -0.009755
v 0.049039 2.000000 -0.009755
v 0.050000 0.000000 0.000000
v 0.050000 2.000000 0.000000
v 0.049039 0.000000 0.009755
v 0.049039 2.000000 0.009755
v 0.046194 0.000000 0.019134
v 0.046194 2.000000 0.019134
v 0.041573 0.000000 0.027779
v 0.041573 2.000000 0.027779
v 0.035355 0.000000 0.035355
v 0.035355 2.000000 0.035355
v 0.027779 0.000000 0.041573
v 0.027779 2.000000 0.041573
v 0.019134 0.000000 0.046194
v 0.019134 2.000000 0.046194
v 0.009755 0.000000 0.049039
v 0.009755 2.000000 0.049039
v 0.000000 0.000000 0.050000
v 0.000000 2.000000 0.050000
v -0.009755 0.000000 0.049039
v -0.009755 2.000000 0.049039
v -0.019134 0.000000 0.046194
v -0.019134 2.000000 0.046194
v -0.027779 0.000000 0.041573
v -0.027779 2.000000 0.041573
v -0.035355 0.000000 0.035355
v -0.035355 2.000000 0.035355
v -0.041573 0.000000 0.027779
v -0.041573 2.000000 0.027779
v -0.046194 0.000000 0.019134
v -0.046194 2.000000 0.019134
v -0.049039 0.000000 0.009755
v -0.049039 2.000000 0.009755
v -0.050000 0.000000 0.000000
v -0.050000 2.000000 0.000000
v -0.049039 0.000000 -0.009755
v -0.049039 2.000000 -0.009755
v -0.046194 0.000000 -0.019134
v -0.046194 2.000000 -0.019134
v -0.041573 0.000000 -0.027779
v -0.041573 2.000000 -0.027779
v -0.035355 0.000000 -0.035355
v -0.035355 2.000000 -0.035355
v -0.027779 0.000000 -0.041573
v -0.027779 2.000000 -0.041573
v -0.019134 0.000000 -0.046194
v -0.019134 2.000000 -0.046194
v -0.009755 0.000000 -0.049039
v -0.009755 2.000000 -0.049039
v 0.015462 1.319906 -0.038967
v 0.015462 1.867755 -0.038967
v 0.015462 1.319906 -1.000000
v 0.015462 1.867755 -1.000000
v -0.015462 1.319906 -0.038967
v -0.015462 1.867755 -0.038967
v -0.015462 1.319906 -1.000000
v -0.015462 1.867755 -1.000000
vn -0.0980 -0.0000 0.9952
vn -0.2903 -0.0000 0.9569
vn -0.4714 -0.0000 0.8819
vn -0.6344 -0.0000 0.7730
vn -0.7730 -0.0000 0.6344
vn -0.8819 -0.0000 0.4714
vn -0.9569 -0.0000 0.2903
vn -0.9952 -0.0000 0.0980
vn -0.9952 -0.0000 -0.0980
vn -0.9569 -0.0000 -0.2903
vn -0.8819 -0.0000 -0.4714
vn -0.7730 -0.0000 -0.6344
vn -0.6344 -0.0000 -0.7730
vn -0.4714 -0.0000 -0.8819
vn -0.2903 -0.0000 -0.9569
vn -0.0980 -0.0000 -0.9952
vn 0.0980 -0.0000 -0.9952
vn 0.2903 -0.0000 -0.9569
vn 0.4714 -0.0000 -0.8819
vn 0.6344 -0.0000 -0.7730
vn 0.7730 -0.0000 -0.6344
vn 0.8819 -0.0000 -0.4714
vn 0.9569 -0.0000 -0.2903
vn 0.9952 -0.0000 -0.0980
vn 0.9952 -0.0000 0.0980
vn 0.9569 -0.0000 0.2903
vn 0.8819 -0.0000 0.4714
vn 0.7730 -0.0000 0.6344
vn 0.6344 -0.0000 0.7730
vn 0.4714 -0.0000 0.8819
vn -0.0000 -1.0000 -0.0000
vn 0.2903 -0.0000 0.9569
vn 0.0980 -0.0000 0.9952
vn -0.0000 1.0000 -0.0000
vn -1.0000 -0.0000 -0.0000
vn -0.0000 -0.0000 1.0000
vn 1.0000 -0.0000 -0.0000
vn -0.0000 -0.0000 -1.0000
vt 0.307105 0.999853
vt 0.432530 0.999854
vt 0.039942 0.464391
vt 0.307105 0.000147
vt 0.080031 0.468311
vt 0.432531 0.000147
vt 0.311025 0.999853
vt 0.039942 0.468311
vt 0.311025 0.000147
vt 0.080031 0.464391
vt 0.314944 0.999853
vt 0.039177 0.472155
vt 0.314944 0.000147
vt 0.079266 0.460547
vt 0.318864 0.999853
vt 0.037678 0.475776
vt 0.318864 0.000147
vt 0.077766 0.456926
vt 0.322783 0.999853
vt 0.035500 0.479035
vt 0.322784 0.000147
vt 0.075589 0.453667
vt 0.326703 0.999853
vt 0.032728 0.481806
vt 0.326703 0.000147
vt 0.072817 0.450895
vt 0.330622 0.999853
vt 0.029469 0.483984
vt 0.330623 0.000147
vt 0.069558 0.448718
vt 0.334542 0.999853
vt 0.025848 0.485484
vt 0.334542 0.000147
vt 0.065937 0.447218
vt 0.338462 0.999853
vt 0.022004 0.486249
vt 0.338462 0.000147
vt 0.062093 0.446453
vt 0.342381 0.999853
vt 0.018085 0.486249
vt 0.342381 0.000147
vt 0.058173 0.446453
vt 0.346301 0.999853
vt 0.014240 0.485484
vt 0.346301 0.000147
vt 0.054329 0.447218
vt 0.350220 0.999853
vt 0.010619 0.483984
vt 0.350220 0.000147
vt 0.050708 0.448718
vt 0.354140 0.999853
vt 0.007360 0.481806
vt 0.354140 0.000147
vt 0.047449 0.450895
vt 0.358059 0.999853
vt 0.004589 0.479035
vt 0.358059 0.000147
vt 0.044677 0.453667
vt 0.361979 0.999853
vt 0.002411 0.475776
vt 0.361979 0.000147
vt 0.042500 0.456926
vt 0.365898 0.999853
vt 0.000911 0.472155
vt 0.365898 0.000147
vt 0.041000 0.460547
vt 0.369818 0.999853
vt 0.000147 0.468311
vt 0.369818 0.000147
vt 0.040235 0.464391
vt 0.373737 0.999853
vt 0.000147 0.464391
vt 0.373737 0.000147
vt 0.040235 0.468311
vt 0.377657 0.999853
vt 0.000911 0.460547
vt 0.377657 0.000147
vt 0.041000 0.472155
vt 0.381576 0.999853
vt 0.002411 0.456926
vt 0.381577 0.000147
vt 0.042500 0.475776
vt 0.385496 0.999853
vt 0.004589 0.453667
vt 0.385496 0.000147
vt 0.044677 0.479035
vt 0.389416 0.999853
vt 0.007360 0.450895
vt 0.389416 0.000147
vt 0.047449 0.481806
vt 0.393335 0.999853
vt 0.010619 0.448718
vt 0.393335 0.000147
vt 0.050708 0.483984
vt 0.397255 0.999853
vt 0.014240 0.447218
vt 0.397255 0.000147
vt 0.054329 0.485484
vt 0.401174 0.999853
vt 0.018085 0.446453
vt 0.401174 0.000147
vt 0.058173 0.486249
vt 0.405094 0.999853
vt 0.022004 0.446453
vt 0.405094 0.000147
vt 0.062093 0.486249
vt 0.409013 0.999853
vt 0.025848 0.447218
vt 0.409013 0.000147
vt 0.065937 0.485484
vt 0.412933 0.999853
vt 0.029469 0.448718
vt 0.412933 0.000147
vt 0.069558 0.483984
vt 0.416852 0.999853
vt 0.032728 0.450895
vt 0.416852 0.000147
vt 0.072817 0.481806
vt 0.420772 0.999854
vt 0.035500 0.453667
vt 0.420772 0.000147
vt 0.075589 0.479035
vt 0.424691 0.999854
vt 0.037678 0.456926
vt 0.077766 0.475776
vt 0.424691 0.000147
vt 0.428611 0.999854
vt 0.039178 0.460547
vt 0.079266 0.472155
vt 0.428611 0.000147
vt 0.697406 0.787803
vt 0.010282 0.029421
vt 0.432824 0.787803
vt 0.276806 0.029260
vt 0.697406 0.394170
vt 0.009206 0.391449
vt 0.432824 0.394170
vt 0.276267 0.392327
vt 0.697406 0.000147
vt 0.000147 0.002188
vt 0.432824 0.000147
vt 0.306812 0.000147
vt 0.697406 0.393877
vt 0.000762 0.410099
vt 0.432824 0.393877
vt 0.306812 0.411564
s 0
f 1/1/1 3/7/1 4/9/1 2/4/1
f 3/7/2 5/11/2 6/13/2 4/9/2
f 5/11/3 7/15/3 8/17/3 6/13/3
f 7/15/4 9/19/4 10/21/4 8/17/4
f 9/19/5 11/23/5 12/25/5 10/21/5
f 11/23/6 13/27/6 14/29/6 12/25/6
f 13/27/7 15/31/7 16/33/7 14/29/7
f 15/31/8 17/35/8 18/37/8 16/33/8
f 17/35/9 19/39/9 20/41/9 18/37/9
f 19/39/10 21/43/10 22/45/10 20/41/10
f 21/43/11 23/47/11 24/49/11 22/45/11
f 23/47/12 25/51/12 26/53/12 24/49/12
f 25/51/13 27/55/13 28/57/13 26/53/13
f 27/55/14 29/59/14 30/61/14 28/57/14
f 29/59/15 31/63/15 32/65/15 30/61/15
f 31/63/16 33/67/16 34/69/16 32/65/16
f 33/67/17 35/71/17 36/73/17 34/69/17
f 35/71/18 37/75/18 38/77/18 36/73/18
f 37/75/19 39/79/19 40/81/19 38/77/19
f 39/79/20 41/83/20 42/85/20 40/81/20
f 41/83/21 43/87/21 44/89/21 42/85/21
f 43/87/22 45/91/22 46/93/22 44/89/22
f 45/91/23 47/95/23 48/97/23 46/93/23
f 47/95/24 49/99/24 50/101/24 48/97/24
f 49/99/25 51/103/25 52/105/25 50/101/25
f 51/103/26 53/107/26 54/109/26 52/105/26
f 53/107/27 55/111/27 56/113/27 54/109/27
f 55/111/28 57/115/28 58/117/28 56/113/28
f 57/115/29 59/119/29 60/121/29 58/117/29
f 59/119/30 61/123/30 62/126/30 60/121/30
f 4/10/31 6/14/31 8/18/31 10/22/31 12/26/31 14/30/31 16/34/31 18/38/31 20/42/31 22/46/31 24/50/31 26/54/31 28/58/31 30/62/31 32/66/31 34/70/31 36/74/31 38/78/31 40/82/31 42/86/31 44/90/31 46/94/31 48/98/31 50/102/31 52/106/31 54/110/31 56/114/31 58/118/31 60/122/31 62/125/31 64/129/31 2/5/31
f 61/123/32 63/127/32 64/130/32 62/126/32
f 63/127/33 1/2/33 2/6/33 64/130/33
f 1/3/34 63/128/34 61/124/34 59/120/34 57/116/34 55/112/34 53/108/34 51/104/34 49/100/34 47/96/34 45/92/34 43/88/34 41/84/34 39/80/34 37/76/34 35/72/34 33/68/34 31/64/34 29/60/34 27/56/34 25/52/34 23/48/34 21/44/34 19/40/34 17/36/34 15/32/34 13/28/34 11/24/34 9/20/34 7/16/34 5/12/34 3/8/34
f 65/131/35 66/133/35 68/137/35 67/135/35
f 67/136/36 68/138/36 72/146/36 71/144/36
f 71/143/37 72/145/37 70/141/37 69/139/37
f 69/140/38 70/142/38 66/134/38 65/132/38
f 67/136/34 71/144/34 69/140/34 65/132/34
f 72/146/31 68/138/31 66/134/31 70/142/31
